# xmcd
#
# Track frame offsets: 
#        150
#        16986
#        30981
#        52545
#        74210
#        92800
#        110918
#        122858
#        141210
#        156801
#        173701
#        196821
#
# Disc length: 2882 seconds
#
# Revision: 0
# Processed by: cddbd v1.5.2PL0 Copyright (c) Steve Scherf et al.
# Submitted via: ExactAudioCopy v1.0b3
#
DISCID=a00b400c
DTITLE=KIDS BOSSA - Michael Covers
DYEAR=2010
DGENRE=Vocal
TTITLE0=Rock With You
TTITLE1=I Want You Back
TTITLE2=Heal the World
TTITLE3=Billie Jean
TTITLE4=Thriller
TTITLE5=Ben
TTITLE6=ABC
TTITLE7=Beat It
TTITLE8=Black or White
TTITLE9=Human Nature
TTITLE10=You Are Not Alone
TTITLE11=I'll Be There
EXTD=
EXTT0=
EXTT1=
EXTT2=
EXTT3=
EXTT4=
EXTT5=
EXTT6=
EXTT7=
EXTT8=
EXTT9=
EXTT10=
EXTT11=
PLAYORDER=
